<svg xmlns="http://www.w3.org/2000/svg" width="278" height="47" fill="none"><path fill="#00507C" d="M27.05 42.5c.333.667.433 1.25.3 1.75s-.4.9-.8 1.2c-.367.3-.8.467-1.3.5-.5.067-.983-.033-1.45-.3-.467-.233-.85-.667-1.15-1.3l-2.3-5.05c-.433-.967-1.067-1.683-1.9-2.15-.833-.467-1.967-.7-3.4-.7l4.35-1.65c1.4.033 2.55.317 3.45.85.933.533 1.733 1.517 2.4 2.95l1.8 3.9ZM15.7 36.45c-3.033 0-5.683-.583-7.95-1.75-2.233-1.167-3.983-2.9-5.25-5.2C1.267 27.2.65 24.433.65 21.2c0-3 .4-5.767 1.2-8.3.833-2.533 2.033-4.75 3.6-6.65a16.012 16.012 0 0 1 5.7-4.4C13.383.817 15.933.3 18.8.3c3.067 0 5.717.583 7.95 1.75 2.267 1.167 4.017 2.9 5.25 5.2 1.233 2.267 1.85 5.017 1.85 8.25 0 3.033-.417 5.817-1.25 8.35-.8 2.533-1.983 4.75-3.55 6.65a16.012 16.012 0 0 1-5.7 4.4c-2.233 1.033-4.783 1.55-7.65 1.55Zm.1-4.5c2.733 0 5.033-.7 6.9-2.1 1.867-1.433 3.283-3.383 4.25-5.85.967-2.467 1.45-5.267 1.45-8.4 0-3.667-.867-6.383-2.6-8.15-1.7-1.767-4.083-2.65-7.15-2.65-2.7 0-4.983.7-6.85 2.1-1.867 1.4-3.283 3.333-4.25 5.8-.967 2.467-1.45 5.267-1.45 8.4 0 3.7.867 6.433 2.6 8.2 1.733 1.767 4.1 2.65 7.1 2.65Zm30.27 4.5c-1.734 0-3.217-.35-4.45-1.05-1.2-.733-2.067-1.85-2.6-3.35-.5-1.533-.567-3.467-.2-5.8l2-12.65c.133-.8.433-1.383.9-1.75.466-.4 1.1-.6 1.9-.6.8 0 1.4.25 1.8.75.4.467.533 1.15.4 2.05l-1.95 12.2c-.3 2.067-.134 3.617.5 4.65.666 1 1.833 1.5 3.5 1.5 2.133 0 3.85-.683 5.15-2.05 1.3-1.4 2.133-3.267 2.5-5.6l1.75-11.15c.133-.8.416-1.383.85-1.75.466-.4 1.1-.6 1.9-.6.833 0 1.433.25 1.8.75.4.467.533 1.15.4 2.05l-3.15 19.9c-.234 1.6-1.15 2.4-2.75 2.4-.767 0-1.35-.217-1.75-.65-.367-.433-.484-1.1-.35-2l.6-4 .4.95c-.834 1.867-2.05 3.3-3.65 4.3-1.567 1-3.4 1.5-5.5 1.5Zm22.216-.1c-.766 0-1.333-.25-1.7-.75-.366-.533-.483-1.267-.35-2.2l3.15-19.65c.134-.833.434-1.45.9-1.85.5-.433 1.167-.65 2-.65.767 0 1.334.267 1.7.8.367.5.484 1.217.35 2.15l-3.15 19.65c-.133.833-.433 1.467-.9 1.9-.466.4-1.133.6-2 .6Zm4.85-30.2c-.933 0-1.633-.233-2.1-.7-.466-.467-.666-1.117-.6-1.95.1-1 .467-1.75 1.1-2.25.634-.533 1.467-.8 2.5-.8.967 0 1.684.233 2.15.7.467.467.667 1.117.6 1.95-.1 1-.466 1.767-1.1 2.3-.6.5-1.45.75-2.55.75Zm16.459 30.3c-2.5 0-4.584-.45-6.25-1.35-1.634-.933-2.867-2.217-3.7-3.85-.8-1.667-1.2-3.583-1.2-5.75 0-1.8.266-3.55.8-5.25.533-1.733 1.333-3.267 2.4-4.6 1.1-1.367 2.5-2.45 4.2-3.25 1.7-.833 3.7-1.25 6-1.25 1.233 0 2.433.167 3.6.5 1.2.3 2.233.717 3.1 1.25.566.333.95.717 1.15 1.15.233.4.316.817.25 1.25-.067.4-.234.75-.5 1.05-.234.3-.55.5-.95.6-.4.067-.834-.033-1.3-.3a8.592 8.592 0 0 0-2.45-1.15c-.8-.233-1.684-.35-2.65-.35-1.534 0-2.834.3-3.9.9a7.309 7.309 0 0 0-2.65 2.4c-.667 1-1.15 2.1-1.45 3.3-.3 1.2-.45 2.433-.45 3.7 0 2.133.5 3.833 1.5 5.1 1.033 1.267 2.733 1.9 5.1 1.9.733 0 1.5-.1 2.3-.3.8-.2 1.616-.567 2.45-1.1.4-.2.783-.267 1.15-.2.366.067.683.25.95.55.266.267.433.583.5.95.066.367.016.75-.15 1.15-.134.4-.45.75-.95 1.05-.867.6-1.95 1.067-3.25 1.4-1.3.333-2.517.5-3.65.5Zm14.239-.1c-.8 0-1.383-.25-1.75-.75-.333-.5-.433-1.217-.3-2.15l4.85-30.65c.134-.833.434-1.433.9-1.8.5-.4 1.167-.6 2-.6.767 0 1.334.267 1.7.8.367.5.484 1.217.35 2.15l-3 18.9h.1l10.95-9.55c.534-.5 1.017-.867 1.45-1.1.434-.233.934-.35 1.5-.35.667 0 1.15.2 1.45.6.334.367.467.833.4 1.4-.066.567-.366 1.083-.9 1.55l-11.2 9.9.1-2.45 9.2 10.5c.467.567.684 1.133.65 1.7-.033.533-.25.983-.65 1.35-.366.367-.866.55-1.5.55-.7 0-1.266-.15-1.7-.45-.4-.3-.866-.783-1.4-1.45l-8.75-9.8h-.1l-1.45 9.3c-.233 1.6-1.2 2.4-2.9 2.4Zm130.333-.15c-.966 0-1.75-.3-2.35-.9-.566-.6-.85-1.367-.85-2.3 0-.933.284-1.683.85-2.25.6-.6 1.384-.9 2.35-.9 1 0 1.767.3 2.3.9.567.567.85 1.317.85 2.25s-.283 1.7-.85 2.3c-.533.6-1.3.9-2.3.9Zm4.348 9.35c-.567.033-1.017-.083-1.35-.35a1.596 1.596 0 0 1-.65-.95 1.93 1.93 0 0 1-.05-1.15c.1-.4.3-.733.6-1 .3-.233.7-.367 1.2-.4 1.567-.067 2.833-.5 3.8-1.3.967-.8 1.583-2.083 1.85-3.85l3.6-22.8c.133-.833.433-1.45.9-1.85.5-.433 1.167-.65 2-.65.767 0 1.333.267 1.7.8.4.5.533 1.217.4 2.15l-3.5 21.95c-.333 2.1-.917 3.817-1.75 5.15a7.718 7.718 0 0 1-3.4 3.05c-1.4.7-3.183 1.1-5.35 1.2Zm12.7-39.4c-.933 0-1.65-.233-2.15-.7-.467-.467-.65-1.117-.55-1.95.067-1 .417-1.75 1.05-2.25.633-.533 1.483-.8 2.55-.8.933 0 1.633.233 2.1.7.5.467.7 1.117.6 1.95-.1 1-.467 1.767-1.1 2.3-.6.5-1.433.75-2.5.75Zm14.505 30.3c-1.567 0-3.084-.167-4.55-.5-1.467-.367-2.734-.833-3.8-1.4-.534-.267-.9-.6-1.1-1-.2-.433-.284-.85-.25-1.25.066-.4.216-.733.45-1 .266-.3.6-.483 1-.55.433-.067.9.033 1.4.3a13.82 13.82 0 0 0 3.35 1.35c1.166.267 2.35.4 3.55.4 1.7 0 3.016-.333 3.95-1 .933-.667 1.4-1.567 1.4-2.7 0-.767-.267-1.4-.8-1.9-.5-.5-1.25-.85-2.25-1.05l-4.65-1.05c-1.734-.367-3.1-1.083-4.1-2.15-.967-1.067-1.45-2.4-1.45-4 0-1.467.4-2.783 1.2-3.95.833-1.167 2.033-2.1 3.6-2.8 1.6-.7 3.483-1.05 5.65-1.05 1.266 0 2.583.183 3.95.55 1.366.367 2.533.867 3.5 1.5.466.3.783.667.95 1.1.2.4.25.8.15 1.2a1.767 1.767 0 0 1-.5.95c-.234.233-.567.367-1 .4-.4.033-.85-.1-1.35-.4a9.621 9.621 0 0 0-2.8-1.2 12.562 12.562 0 0 0-3.15-.4c-1.734 0-3.1.35-4.1 1.05-.967.7-1.45 1.633-1.45 2.8 0 .7.216 1.317.65 1.85.433.5 1.133.85 2.1 1.05l4.65 1.05c1.866.433 3.3 1.167 4.3 2.2 1.033 1 1.55 2.3 1.55 3.9 0 2.433-.917 4.333-2.75 5.7-1.834 1.333-4.267 2-7.3 2Z"/><path fill="#0074B5" d="M140.816 36.45c-1.934 0-3.65-.467-5.15-1.4-1.467-.933-2.484-2.35-3.05-4.25l.4-.9-.6 3.95c-.1.8-.384 1.417-.85 1.85-.434.433-1.067.65-1.9.65-.8 0-1.4-.25-1.8-.75-.367-.533-.484-1.267-.35-2.2l4.85-30.5c.133-.833.433-1.45.9-1.85.5-.433 1.166-.65 2-.65.8 0 1.383.25 1.75.75.366.5.483 1.233.35 2.2l-2.1 13.2h-.55c.9-1.7 2.116-3.017 3.65-3.95 1.533-.967 3.316-1.45 5.35-1.45 1.866 0 3.5.433 4.9 1.3 1.4.833 2.483 2.033 3.25 3.6.766 1.567 1.15 3.433 1.15 5.6 0 2.7-.484 5.183-1.45 7.45-.934 2.233-2.317 4.017-4.15 5.35-1.834 1.333-4.034 2-6.6 2Zm-.8-3.9c1.7 0 3.133-.483 4.3-1.45 1.166-.967 2.05-2.25 2.65-3.85.633-1.633.95-3.433.95-5.4 0-2.2-.534-3.867-1.6-5-1.067-1.167-2.534-1.75-4.4-1.75-1.667 0-3.1.483-4.3 1.45-1.167.933-2.067 2.217-2.7 3.85-.634 1.6-.95 3.4-.95 5.4 0 2.167.533 3.833 1.6 5 1.066 1.167 2.55 1.75 4.45 1.75Zm28.091 3.9c-2.3 0-4.267-.433-5.9-1.3a9.152 9.152 0 0 1-3.8-3.75c-.867-1.633-1.3-3.567-1.3-5.8 0-2.133.316-4.067.95-5.8.666-1.767 1.583-3.3 2.75-4.6 1.2-1.3 2.6-2.3 4.2-3 1.6-.7 3.35-1.05 5.25-1.05 2.3 0 4.266.45 5.9 1.35a8.854 8.854 0 0 1 3.75 3.75c.9 1.6 1.35 3.517 1.35 5.75 0 2.133-.334 4.083-1 5.85-.634 1.767-1.55 3.3-2.75 4.6a12.258 12.258 0 0 1-4.15 2.95c-1.6.7-3.35 1.05-5.25 1.05Zm.1-3.9c1.733 0 3.183-.483 4.35-1.45 1.166-.967 2.05-2.25 2.65-3.85.633-1.633.95-3.433.95-5.4 0-2.2-.534-3.867-1.6-5-1.067-1.167-2.534-1.75-4.4-1.75-1.7 0-3.15.483-4.35 1.45-1.167.933-2.067 2.217-2.7 3.85-.6 1.6-.9 3.4-.9 5.4 0 2.167.533 3.833 1.6 5 1.066 1.167 2.533 1.75 4.4 1.75Zm28.171 3.9c-2.3 0-4.267-.433-5.9-1.3a9.158 9.158 0 0 1-3.8-3.75c-.867-1.633-1.3-3.567-1.3-5.8 0-2.133.317-4.067.95-5.8.667-1.767 1.583-3.3 2.75-4.6 1.2-1.3 2.6-2.3 4.2-3 1.6-.7 3.35-1.05 5.25-1.05 2.3 0 4.267.45 5.9 1.35a8.854 8.854 0 0 1 3.75 3.75c.9 1.6 1.35 3.517 1.35 5.75 0 2.133-.333 4.083-1 5.85-.633 1.767-1.55 3.3-2.75 4.6a12.258 12.258 0 0 1-4.15 2.95c-1.6.7-3.35 1.05-5.25 1.05Zm.1-3.9c1.733 0 3.183-.483 4.35-1.45 1.167-.967 2.05-2.25 2.65-3.85.633-1.633.95-3.433.95-5.4 0-2.2-.533-3.867-1.6-5-1.067-1.167-2.533-1.75-4.4-1.75-1.7 0-3.15.483-4.35 1.45-1.167.933-2.067 2.217-2.7 3.85-.6 1.6-.9 3.4-.9 5.4 0 2.167.533 3.833 1.6 5 1.067 1.167 2.533 1.75 4.4 1.75Zm27.227 3.9c-2 0-3.666-.383-5-1.15-1.3-.767-2.216-1.833-2.75-3.2-.5-1.367-.6-2.967-.3-4.8l1.9-11.8h-2.7c-.666 0-1.2-.15-1.6-.45-.366-.3-.55-.7-.55-1.2 0-.733.234-1.283.7-1.65.5-.4 1.134-.6 1.9-.6h2.85l.85-5.35c.134-.8.434-1.383.9-1.75.467-.4 1.084-.6 1.85-.6.867 0 1.484.25 1.85.75.367.467.484 1.15.35 2.05l-.75 4.9h5.5c.7 0 1.234.133 1.6.4.367.267.55.683.55 1.25 0 .633-.216 1.167-.65 1.6-.4.433-.983.65-1.75.65h-5.85l-1.85 11.4c-.3 1.9-.083 3.267.65 4.1.734.833 1.817 1.25 3.25 1.25.634 0 1.134-.05 1.5-.15.4-.133.75-.2 1.05-.2.4 0 .684.117.85.35.2.2.3.567.3 1.1 0 .9-.15 1.533-.45 1.9-.266.367-.666.633-1.2.8-.366.133-.85.233-1.45.3-.566.067-1.083.1-1.55.1Z"/></svg>
